<svg xmlns="http://www.w3.org/2000/svg" viewBox="0 0 200 50" fill="none">
  <path d="M17.5 12c-6.5 0-11.5 5.5-11.5 13s4.5 12 10.5 12c4 0 7-2 9.5-5.5l4.5-7c2-3 3.5-4.5 6.5-4.5 4.5 0 7.5 3.5 7.5 8.5s-3.5 8.5-8 8.5c-2.5 0-4.5-1-6-2.5l-4 5c2.5 2.5 5.5 4 10 4 8 0 14-6 14-14.5s-5.5-14.5-14-14.5c-5.5 0-9.5 3-12.5 7.5l-4.5 7c-2 3-4 5-7 5-3.5 0-6-2.5-6-6s3-8.5 8-8.5c2 0 3.5.5 5 2l4-5c-2.5-2-5.5-3-9-3v-.5z" fill="#0081FB"/>
  <path d="M67 37V21c0-6-4-11-11.5-11-5 0-9 2.5-12 6l3 4.5c2.5-3 5.5-5 9-5 4.5 0 6.5 3 6.5 7v2h-7.5c-8 0-12 4-12 10.5S47 45.5 53.5 45.5c5 0 8.5-2.5 10.5-6V45h5v-8h-2zm-5-6v3c-2 3-5 5.5-9 5.5-4 0-6.5-2.5-6.5-6s3-5.5 7-5.5h8.5v3z" fill="#0081FB"/>
  <path d="M100 45V21h-14V9h-5v36h5v-19h9v19h5z" fill="#0081FB"/>
  <path d="M136 37V21c0-6-4-11-11.5-11-5 0-9 2.5-12 6l3 4.5c2.5-3 5.5-5 9-5 4.5 0 6.5 3 6.5 7v2h-7.5c-8 0-12 4-12 10.5s4.5 10.5 11 10.5c5 0 8.5-2.5 10.5-6V45h5v-8h-2zm-5-6v3c-2 3-5 5.5-9 5.5-4 0-6.5-2.5-6.5-6s3-5.5 7-5.5h8.5v3z" fill="#0081FB"/>
</svg>

